<?xml version="1.0" standalone="no"?><!DOCTYPE svg PUBLIC "-//W3C//DTD SVG 1.1//EN" "http://www.w3.org/Graphics/SVG/1.1/DTD/svg11.dtd"><svg t="1608919195660" class="icon" viewBox="0 0 1024 1024" version="1.1" xmlns="http://www.w3.org/2000/svg" p-id="1210" width="32" height="32" xmlns:xlink="http://www.w3.org/1999/xlink"><defs><style type="text/css"></style></defs><path d="M420.010667 928q8.021333-13.994667 86.016-150.016t120.021333-205.994667l155.989333 269.994667q-118.016 96-269.994667 96-41.984 0-91.989333-9.984zM104.021333 640l413.994667 0-157.994667 269.994667q-91.989333-34.005333-159.018667-105.002667t-96.981333-164.992zM198.016 224l216.021333 374.016-320 0q-8.021333-38.016-8.021333-86.016 0-166.016 112-288zM930.005333 425.984q8.021333 38.016 8.021333 86.016 0 166.016-112 288l-203.989333-352-11.989333-22.016 320 0zM920.021333 384l-413.994667 0 157.994667-269.994667q91.989333 34.005333 159.018667 105.002667t96.981333 164.992zM402.005333 448l-4.010667 4.010667-155.989333-269.994667q118.016-96 269.994667-96 41.984 0 91.989333 9.984z" p-id="1211" fill="#757575"></path></svg>